<svg width="1220" height="720" xmlns="http://www.w3.org/2000/svg" xmlns:xlink="http://www.w3.org/1999/xlink">
	<rect x="10" y="10" width="1200" height="700" fill="none" stroke="blue" stroke-width="2" />
	<rect x="10" y="360" width="200" height="350" fill="none" stroke="blue" stroke-width="2" />
	<text x="110" y="535" font-family="Arial" font-size="20" fill="black" text-anchor="middle" dominant-baseline="middle" >Whitman's</text>
	<rect x="710" y="560" width="200" height="150" fill="none" stroke="blue" stroke-width="2" />
	<text x="810" y="635" font-family="Arial" font-size="20" fill="black" text-anchor="middle" dominant-baseline="middle" >Lee's</text>
	<rect x="210" y="560" width="500" height="150" fill="none" stroke="blue" stroke-width="2" />
	<text x="460" y="635" font-family="Arial" font-size="20" fill="black" text-anchor="middle" dominant-baseline="middle" >Whitman's dining area</text>
	<rect x="960" y="560" width="250" height="150" fill="none" stroke="blue" stroke-width="2" />
	<text x="1085" y="635" font-family="Arial" font-size="20" fill="black" text-anchor="middle" dominant-baseline="middle" >Lee's dining area</text>
	<rect x="260" y="310" width="650" height="200" fill="none" stroke="blue" stroke-width="2" />
	<text x="585" y="410" font-family="Arial" font-size="20" fill="black" text-anchor="middle" dominant-baseline="middle" >main dining area</text>
	<rect x="85" y="10" width="200" height="75" fill="none" stroke="blue" stroke-width="2" />
	<text x="185" y="47" font-family="Arial" font-size="20" fill="black" text-anchor="middle" dominant-baseline="middle" >Bathrooms</text>
	<rect x="335" y="160" width="175" height="75" fill="none" stroke="blue" stroke-width="2" />
	<text x="422" y="197" font-family="Arial" font-size="20" fill="black" text-anchor="middle" dominant-baseline="middle" >Stairs Up</text>
	<rect x="685" y="160" width="175" height="75" fill="none" stroke="blue" stroke-width="2" />
	<text x="772" y="197" font-family="Arial" font-size="20" fill="black" text-anchor="middle" dominant-baseline="middle" >Stairs Up</text>
	<rect x="1035" y="160" width="175" height="75" fill="none" stroke="blue" stroke-width="2" />
	<text x="1122" y="197" font-family="Arial" font-size="20" fill="black" text-anchor="middle" dominant-baseline="middle" >Stairs Down</text>
	<rect x="1010" y="10" width="200" height="150" fill="none" stroke="blue" stroke-width="2" />
	<text x="1110" y="85" font-family="Arial" font-size="20" fill="black" text-anchor="middle" dominant-baseline="middle" >Study Room</text>
</svg>
