<svg width="1220" height="720" xmlns="http://www.w3.org/2000/svg" xmlns:xlink="http://www.w3.org/1999/xlink">
	<rect x="10" y="10" width="1200" height="700" fill="none" stroke="blue" stroke-width="2" />
	<rect x="10" y="360" width="200" height="350" fill="none" stroke="blue" stroke-width="2" />
	<text x="110" y="535" font-family="Arial" font-size="20" fill="black" text-anchor="middle" dominant-baseline="middle" >Whitman's</text>
	<rect x="710" y="560" width="200" height="150" fill="none" stroke="blue" stroke-width="2" />
	<text x="810" y="635" font-family="Arial" font-size="20" fill="black" text-anchor="middle" dominant-baseline="middle" >Lee's</text>
	<rect x="210" y="560" width="500" height="150" fill="none" stroke="blue" stroke-width="2" />
	<rect x="235" y="585" width="25" height="25" fill="none" stroke="blue" stroke-width="2" />
	<text x="247" y="597" font-family="Arial" font-size="10" fill="black" text-anchor="middle" dominant-baseline="middle" >Table</text>
	<rect x="243" y="573" width="8" height="8" fill="none" stroke="blue" stroke-width="2" />
	<rect x="243" y="614" width="8" height="8" fill="none" stroke="blue" stroke-width="2" />
	<rect x="305" y="585" width="25" height="25" fill="none" stroke="blue" stroke-width="2" />
	<text x="317" y="597" font-family="Arial" font-size="10" fill="black" text-anchor="middle" dominant-baseline="middle" >Table</text>
	<rect x="313" y="573" width="8" height="8" fill="none" stroke="blue" stroke-width="2" />
	<rect x="313" y="614" width="8" height="8" fill="none" stroke="blue" stroke-width="2" />
	<rect x="375" y="585" width="25" height="25" fill="none" stroke="blue" stroke-width="2" />
	<text x="387" y="597" font-family="Arial" font-size="10" fill="black" text-anchor="middle" dominant-baseline="middle" >Table</text>
	<rect x="383" y="573" width="8" height="8" fill="none" stroke="blue" stroke-width="2" />
	<rect x="383" y="614" width="8" height="8" fill="none" stroke="blue" stroke-width="2" />
	<rect x="445" y="585" width="25" height="25" fill="none" stroke="blue" stroke-width="2" />
	<text x="457" y="597" font-family="Arial" font-size="10" fill="black" text-anchor="middle" dominant-baseline="middle" >Table</text>
	<rect x="453" y="573" width="8" height="8" fill="none" stroke="blue" stroke-width="2" />
	<rect x="453" y="614" width="8" height="8" fill="none" stroke="blue" stroke-width="2" />
	<rect x="515" y="585" width="25" height="25" fill="none" stroke="blue" stroke-width="2" />
	<text x="527" y="597" font-family="Arial" font-size="10" fill="black" text-anchor="middle" dominant-baseline="middle" >Table</text>
	<rect x="523" y="573" width="8" height="8" fill="none" stroke="blue" stroke-width="2" />
	<rect x="523" y="614" width="8" height="8" fill="none" stroke="blue" stroke-width="2" />
	<rect x="585" y="585" width="25" height="25" fill="none" stroke="blue" stroke-width="2" />
	<text x="597" y="597" font-family="Arial" font-size="10" fill="black" text-anchor="middle" dominant-baseline="middle" >Table</text>
	<rect x="593" y="573" width="8" height="8" fill="none" stroke="blue" stroke-width="2" />
	<rect x="593" y="614" width="8" height="8" fill="none" stroke="blue" stroke-width="2" />
	<rect x="655" y="585" width="25" height="25" fill="none" stroke="blue" stroke-width="2" />
	<text x="667" y="597" font-family="Arial" font-size="10" fill="black" text-anchor="middle" dominant-baseline="middle" >Table</text>
	<rect x="663" y="573" width="8" height="8" fill="none" stroke="blue" stroke-width="2" />
	<rect x="663" y="614" width="8" height="8" fill="none" stroke="blue" stroke-width="2" />
	<rect x="235" y="655" width="25" height="25" fill="none" stroke="blue" stroke-width="2" />
	<text x="247" y="667" font-family="Arial" font-size="10" fill="black" text-anchor="middle" dominant-baseline="middle" >Table</text>
	<rect x="243" y="643" width="8" height="8" fill="none" stroke="blue" stroke-width="2" />
	<rect x="243" y="684" width="8" height="8" fill="none" stroke="blue" stroke-width="2" />
	<rect x="305" y="655" width="25" height="25" fill="none" stroke="blue" stroke-width="2" />
	<text x="317" y="667" font-family="Arial" font-size="10" fill="black" text-anchor="middle" dominant-baseline="middle" >Table</text>
	<rect x="313" y="643" width="8" height="8" fill="none" stroke="blue" stroke-width="2" />
	<rect x="313" y="684" width="8" height="8" fill="none" stroke="blue" stroke-width="2" />
	<rect x="375" y="655" width="25" height="25" fill="none" stroke="blue" stroke-width="2" />
	<text x="387" y="667" font-family="Arial" font-size="10" fill="black" text-anchor="middle" dominant-baseline="middle" >Table</text>
	<rect x="383" y="643" width="8" height="8" fill="none" stroke="blue" stroke-width="2" />
	<rect x="383" y="684" width="8" height="8" fill="none" stroke="blue" stroke-width="2" />
	<rect x="445" y="655" width="25" height="25" fill="none" stroke="blue" stroke-width="2" />
	<text x="457" y="667" font-family="Arial" font-size="10" fill="black" text-anchor="middle" dominant-baseline="middle" >Table</text>
	<rect x="453" y="643" width="8" height="8" fill="none" stroke="blue" stroke-width="2" />
	<rect x="453" y="684" width="8" height="8" fill="none" stroke="blue" stroke-width="2" />
	<rect x="515" y="655" width="25" height="25" fill="none" stroke="blue" stroke-width="2" />
	<text x="527" y="667" font-family="Arial" font-size="10" fill="black" text-anchor="middle" dominant-baseline="middle" >Table</text>
	<rect x="523" y="643" width="8" height="8" fill="none" stroke="blue" stroke-width="2" />
	<rect x="523" y="684" width="8" height="8" fill="none" stroke="blue" stroke-width="2" />
	<rect x="585" y="655" width="25" height="25" fill="none" stroke="blue" stroke-width="2" />
	<text x="597" y="667" font-family="Arial" font-size="10" fill="black" text-anchor="middle" dominant-baseline="middle" >Table</text>
	<rect x="593" y="643" width="8" height="8" fill="none" stroke="blue" stroke-width="2" />
	<rect x="593" y="684" width="8" height="8" fill="none" stroke="blue" stroke-width="2" />
	<rect x="655" y="655" width="25" height="25" fill="none" stroke="blue" stroke-width="2" />
	<text x="667" y="667" font-family="Arial" font-size="10" fill="black" text-anchor="middle" dominant-baseline="middle" >Table</text>
	<rect x="663" y="643" width="8" height="8" fill="none" stroke="blue" stroke-width="2" />
	<rect x="663" y="684" width="8" height="8" fill="none" stroke="blue" stroke-width="2" />
	<rect x="960" y="560" width="250" height="150" fill="none" stroke="blue" stroke-width="2" />
	<rect x="985" y="585" width="25" height="25" fill="none" stroke="blue" stroke-width="2" />
	<text x="997" y="597" font-family="Arial" font-size="10" fill="black" text-anchor="middle" dominant-baseline="middle" >Table</text>
	<rect x="993" y="573" width="8" height="8" fill="none" stroke="blue" stroke-width="2" />
	<rect x="993" y="614" width="8" height="8" fill="none" stroke="blue" stroke-width="2" />
	<rect x="1055" y="585" width="25" height="25" fill="none" stroke="blue" stroke-width="2" />
	<text x="1067" y="597" font-family="Arial" font-size="10" fill="black" text-anchor="middle" dominant-baseline="middle" >Table</text>
	<rect x="1063" y="573" width="8" height="8" fill="none" stroke="blue" stroke-width="2" />
	<rect x="1063" y="614" width="8" height="8" fill="none" stroke="blue" stroke-width="2" />
	<rect x="1125" y="585" width="25" height="25" fill="none" stroke="blue" stroke-width="2" />
	<text x="1137" y="597" font-family="Arial" font-size="10" fill="black" text-anchor="middle" dominant-baseline="middle" >Table</text>
	<rect x="1133" y="573" width="8" height="8" fill="none" stroke="blue" stroke-width="2" />
	<rect x="1133" y="614" width="8" height="8" fill="none" stroke="blue" stroke-width="2" />
	<rect x="985" y="655" width="25" height="25" fill="none" stroke="blue" stroke-width="2" />
	<text x="997" y="667" font-family="Arial" font-size="10" fill="black" text-anchor="middle" dominant-baseline="middle" >Table</text>
	<rect x="993" y="643" width="8" height="8" fill="none" stroke="blue" stroke-width="2" />
	<rect x="993" y="684" width="8" height="8" fill="none" stroke="blue" stroke-width="2" />
	<rect x="1055" y="655" width="25" height="25" fill="none" stroke="blue" stroke-width="2" />
	<text x="1067" y="667" font-family="Arial" font-size="10" fill="black" text-anchor="middle" dominant-baseline="middle" >Table</text>
	<rect x="1063" y="643" width="8" height="8" fill="none" stroke="blue" stroke-width="2" />
	<rect x="1063" y="684" width="8" height="8" fill="none" stroke="blue" stroke-width="2" />
	<rect x="1125" y="655" width="25" height="25" fill="none" stroke="blue" stroke-width="2" />
	<text x="1137" y="667" font-family="Arial" font-size="10" fill="black" text-anchor="middle" dominant-baseline="middle" >Table</text>
	<rect x="1133" y="643" width="8" height="8" fill="none" stroke="blue" stroke-width="2" />
	<rect x="1133" y="684" width="8" height="8" fill="none" stroke="blue" stroke-width="2" />
	<rect x="260" y="310" width="650" height="200" fill="none" stroke="blue" stroke-width="2" />
	<rect x="422" y="357" width="400" height="25" fill="none" stroke="blue" stroke-width="2" />
	<text x="622" y="369" font-family="Arial" font-size="10" fill="black" text-anchor="middle" dominant-baseline="middle" >Table</text>
	<rect x="430" y="345" width="380" height="8" fill="none" stroke="blue" stroke-width="2" />
	<rect x="430" y="386" width="380" height="8" fill="none" stroke="blue" stroke-width="2" />
	<rect x="422" y="437" width="400" height="25" fill="none" stroke="blue" stroke-width="2" />
	<text x="622" y="449" font-family="Arial" font-size="10" fill="black" text-anchor="middle" dominant-baseline="middle" >Table</text>
	<rect x="430" y="425" width="380" height="8" fill="none" stroke="blue" stroke-width="2" />
	<rect x="430" y="466" width="380" height="8" fill="none" stroke="blue" stroke-width="2" />
	<rect x="335" y="160" width="180" height="75" fill="none" stroke="blue" stroke-width="2" />
	<rect x="335" y="160" width="20" height="75" fill="none" stroke="blue" stroke-width="2" />
	<rect x="355" y="160" width="20" height="75" fill="none" stroke="blue" stroke-width="2" />
	<rect x="375" y="160" width="20" height="75" fill="none" stroke="blue" stroke-width="2" />
	<rect x="395" y="160" width="20" height="75" fill="none" stroke="blue" stroke-width="2" />
	<rect x="415" y="160" width="20" height="75" fill="none" stroke="blue" stroke-width="2" />
	<rect x="435" y="160" width="20" height="75" fill="none" stroke="blue" stroke-width="2" />
	<rect x="455" y="160" width="20" height="75" fill="none" stroke="blue" stroke-width="2" />
	<rect x="475" y="160" width="20" height="75" fill="none" stroke="blue" stroke-width="2" />
	<rect x="495" y="160" width="20" height="75" fill="none" stroke="blue" stroke-width="2" />
	<rect x="685" y="160" width="180" height="75" fill="none" stroke="blue" stroke-width="2" />
	<rect x="685" y="160" width="20" height="75" fill="none" stroke="blue" stroke-width="2" />
	<rect x="705" y="160" width="20" height="75" fill="none" stroke="blue" stroke-width="2" />
	<rect x="725" y="160" width="20" height="75" fill="none" stroke="blue" stroke-width="2" />
	<rect x="745" y="160" width="20" height="75" fill="none" stroke="blue" stroke-width="2" />
	<rect x="765" y="160" width="20" height="75" fill="none" stroke="blue" stroke-width="2" />
	<rect x="785" y="160" width="20" height="75" fill="none" stroke="blue" stroke-width="2" />
	<rect x="805" y="160" width="20" height="75" fill="none" stroke="blue" stroke-width="2" />
	<rect x="825" y="160" width="20" height="75" fill="none" stroke="blue" stroke-width="2" />
	<rect x="845" y="160" width="20" height="75" fill="none" stroke="blue" stroke-width="2" />
	<rect x="1030" y="160" width="180" height="75" fill="none" stroke="blue" stroke-width="2" />
	<rect x="1030" y="160" width="20" height="75" fill="none" stroke="blue" stroke-width="2" />
	<rect x="1050" y="160" width="20" height="75" fill="none" stroke="blue" stroke-width="2" />
	<rect x="1070" y="160" width="20" height="75" fill="none" stroke="blue" stroke-width="2" />
	<rect x="1090" y="160" width="20" height="75" fill="none" stroke="blue" stroke-width="2" />
	<rect x="1110" y="160" width="20" height="75" fill="none" stroke="blue" stroke-width="2" />
	<rect x="1130" y="160" width="20" height="75" fill="none" stroke="blue" stroke-width="2" />
	<rect x="1150" y="160" width="20" height="75" fill="none" stroke="blue" stroke-width="2" />
	<rect x="1170" y="160" width="20" height="75" fill="none" stroke="blue" stroke-width="2" />
	<rect x="1190" y="160" width="20" height="75" fill="none" stroke="blue" stroke-width="2" />
	<rect x="85" y="10" width="200" height="75" fill="none" stroke="blue" stroke-width="2" />
	<text x="185" y="47" font-family="Arial" font-size="20" fill="black" text-anchor="middle" dominant-baseline="middle" >Bathrooms</text>
	<rect x="1010" y="10" width="200" height="150" fill="none" stroke="blue" stroke-width="2" />
	<text x="1110" y="85" font-family="Arial" font-size="20" fill="black" text-anchor="middle" dominant-baseline="middle" >Study Room</text>
</svg>
